# xmcd
#
# Track frame offsets:
#	150
#	17585
#	36130
#	52222
#	68200
#	89392
#	108882
#	125012
#	137970
#	155407
#	173892
#	189977
#	205927
#	227097
#	246575
#	262725
#
# Disc length: 3676 seconds
#
# Revision: 2
# Processed by: cddbd v1.5.2PL0 Copyright (c) Steve Scherf et al.
# Submitted via: audiograbber 1.83.01
#
DISCID=e10e5a10
DTITLE=Various Artist - SC3053
DYEAR=2001
DGENRE=Country
TTITLE0=McGraw, Tim - Just To See You Smile
TTITLE1=White, Bryan - One Small Miracle
TTITLE2=Chesnutt, Mark - It's Not Over
TTITLE3=Singletary, Daryle - Note, The
TTITLE4=Cochran, Anita and Wariner, Steve - What If I Said
TTITLE5=Mason, Mila - Closer To Heaven
TTITLE6=Dixie Chicks - I Can Love You Better
TTITLE7=Wright, Chely - Just Another Heartache
TTITLE8=McGraw, Tim - Just To See You Smile (Vocal)
TTITLE9=White, Bryan - One Small Miracle (Vocal)
TTITLE10=Chesnutt, Mark - It's Not Over (Vocal)
TTITLE11=Singletary, Daryle - Note, The (Vocal)
TTITLE12=Cochran, Anita and Wariner, Steve - What If I Said (Vocal)
TTITLE13=Mason, Mila - Closer To Heaven (Vocal)
TTITLE14=Dixie Chicks - I Can Love You Better (Vocal)
TTITLE15=Wright, Chely - Just Another Heartache (Vocal)
EXTD=Chuck
EXTT0=
EXTT1=
EXTT2=
EXTT3=
EXTT4=
EXTT5=
EXTT6=
EXTT7=
EXTT8=
EXTT9=
EXTT10=
EXTT11=
EXTT12=
EXTT13=
EXTT14=
EXTT15=
PLAYORDER=
